<?xml version="1.0" encoding="UTF-8"?>
<svg xmlns="http://www.w3.org/2000/svg" xmlns:xlink="http://www.w3.org/1999/xlink" width="40px" height="40px" viewBox="0 0 40 40" version="1.1" fill="none">
<g id="surface1">
<path fill="#6C707E" style=" stroke:none;fill-rule:nonzero;fill-opacity:1;" d="M 16.757812 0.671875 C 16.132812 1.035156 15.332031 1.492188 14.96875 1.699219 C 14.617188 1.90625 13.925781 2.304688 13.429688 2.597656 C 12.9375 2.871094 12.246094 3.273438 11.882812 3.476562 C 11.113281 3.9375 9.765625 4.707031 8.640625 5.351562 C 7.257812 6.152344 6.492188 6.59375 5.632812 7.089844 C 5.164062 7.363281 4.445312 7.773438 4.03125 8.015625 L 3.273438 8.457031 L 3.25 16.921875 L 3.242188 25.390625 L 3.445312 25.515625 C 3.554688 25.585938 3.976562 25.828125 4.375 26.054688 C 4.773438 26.289062 5.507812 26.710938 5.996094 26.992188 C 7.226562 27.703125 9.160156 28.820312 10.996094 29.875 C 12.871094 30.957031 13.476562 31.296875 14.277344 31.765625 C 14.765625 32.039062 15.539062 32.480469 15.996094 32.753906 C 16.453125 33.015625 17.0625 33.367188 17.335938 33.535156 C 17.617188 33.691406 17.859375 33.820312 17.871094 33.820312 C 17.898438 33.820312 17.910156 33.046875 17.910156 32.101562 L 17.910156 30.371094 L 17.34375 30.046875 C 17.03125 29.875 16.515625 29.570312 16.179688 29.367188 C 15.851562 29.179688 15.292969 28.859375 14.953125 28.652344 C 14.601562 28.445312 14.160156 28.195312 13.953125 28.078125 C 13.757812 27.960938 12.929688 27.480469 12.117188 27.011719 C 11.308594 26.554688 10.203125 25.90625 9.65625 25.585938 C 8.445312 24.882812 7.910156 24.578125 7.078125 24.09375 L 6.4375 23.710938 L 6.4375 10.359375 L 6.660156 10.226562 C 6.789062 10.15625 7.109375 9.96875 7.382812 9.804688 C 7.65625 9.648438 8.066406 9.40625 8.300781 9.265625 C 8.535156 9.132812 9.015625 8.847656 9.367188 8.640625 C 9.734375 8.429688 10.195312 8.15625 10.390625 8.039062 C 10.59375 7.921875 11.054688 7.648438 11.414062 7.429688 C 11.777344 7.226562 12.167969 6.992188 12.304688 6.914062 C 12.429688 6.835938 12.832031 6.601562 13.195312 6.386719 C 13.554688 6.179688 14.015625 5.90625 14.210938 5.789062 C 14.414062 5.664062 14.863281 5.398438 15.203125 5.195312 C 15.554688 4.992188 16.296875 4.5625 16.875 4.21875 C 17.585938 3.808594 17.9375 3.625 17.976562 3.664062 C 18.007812 3.691406 18.835938 4.160156 19.8125 4.726562 C 20.800781 5.28125 23.339844 6.738281 25.488281 7.960938 L 29.367188 10.175781 L 29.34375 23.632812 L 28.75 23.992188 L 28.144531 24.34375 L 32.570312 24.34375 L 32.570312 8.457031 L 31.816406 8.027344 C 31.40625 7.792969 30.683594 7.382812 30.203125 7.109375 C 29.226562 6.542969 26.523438 4.980469 25.554688 4.421875 C 21.828125 2.285156 18.027344 0.0859375 17.988281 0.046875 C 17.960938 0.0195312 17.929688 0 17.910156 0.0078125 C 17.890625 0.0078125 17.375 0.304688 16.757812 0.671875 Z M 16.757812 0.671875 "/>
<path fill="#6C707E" style=" stroke:none;fill-rule:nonzero;fill-opacity:1;" d="M 17.246094 5.75 C 17.023438 5.890625 16.386719 6.269531 15.839844 6.59375 C 15.292969 6.914062 14.578125 7.335938 14.257812 7.53125 C 13.9375 7.726562 13.664062 7.898438 13.664062 7.910156 C 13.664062 7.929688 13.898438 8.078125 14.179688 8.234375 C 14.460938 8.398438 15.359375 8.925781 16.179688 9.40625 C 17 9.882812 17.695312 10.273438 17.726562 10.273438 C 17.753906 10.273438 18.210938 10.03125 18.742188 9.71875 C 19.929688 9.015625 20.839844 8.484375 21.375 8.171875 L 21.777344 7.949219 L 21.191406 7.597656 C 20.867188 7.402344 20.304688 7.070312 19.953125 6.855469 C 18.976562 6.289062 17.898438 5.644531 17.773438 5.578125 C 17.6875 5.515625 17.617188 5.539062 17.246094 5.75 Z M 17.246094 5.75 "/>
<path fill="#6C707E" style=" stroke:none;fill-rule:nonzero;fill-opacity:1;" d="M 11.75 9.003906 C 11.28125 9.277344 10.460938 9.757812 9.929688 10.078125 C 9.394531 10.390625 8.976562 10.671875 8.992188 10.683594 C 9.015625 10.710938 9.5 10.996094 10.078125 11.320312 C 10.65625 11.660156 11.5625 12.179688 12.089844 12.480469 L 13.066406 13.046875 L 13.320312 12.898438 C 13.46875 12.820312 13.808594 12.625 14.082031 12.460938 C 14.355469 12.296875 15.046875 11.894531 15.617188 11.570312 C 16.179688 11.230469 16.640625 10.945312 16.632812 10.917969 C 16.621094 10.878906 15.527344 10.214844 13.398438 8.984375 C 13.09375 8.808594 12.792969 8.625 12.726562 8.574219 C 12.597656 8.484375 12.570312 8.507812 11.75 9.003906 Z M 11.75 9.003906 "/>
<path fill="#6C707E" style=" stroke:none;fill-rule:nonzero;fill-opacity:1;" d="M 22.570312 8.9375 C 22.296875 9.09375 21.699219 9.445312 21.257812 9.71875 C 20.8125 9.96875 20.125 10.371094 19.746094 10.605469 C 19.367188 10.828125 19.0625 11.015625 19.070312 11.023438 C 19.082031 11.023438 19.550781 11.296875 20.109375 11.621094 C 21.777344 12.597656 22.3125 12.910156 22.519531 13.027344 C 22.617188 13.085938 22.734375 13.144531 22.773438 13.144531 C 22.851562 13.144531 23.117188 12.988281 24.082031 12.421875 C 25.085938 11.828125 25.761719 11.4375 26.230469 11.164062 C 26.503906 11.007812 26.75 10.859375 26.765625 10.839844 C 26.789062 10.820312 26.554688 10.65625 26.242188 10.46875 C 25.9375 10.28125 25.515625 10.039062 25.3125 9.921875 C 23.625 8.914062 23.144531 8.640625 23.105469 8.640625 C 23.085938 8.640625 22.84375 8.769531 22.570312 8.9375 Z M 22.570312 8.9375 "/>
<path fill="#6C707E" style=" stroke:none;fill-rule:nonzero;fill-opacity:1;" d="M 17.695312 11.796875 C 17.3125 12.023438 15.617188 13.039062 14.941406 13.429688 C 14.648438 13.601562 14.40625 13.769531 14.414062 13.789062 C 14.421875 13.820312 17.871094 15.828125 18.046875 15.898438 C 18.085938 15.917969 18.820312 15.515625 19.667969 15.007812 C 20.527344 14.511719 21.347656 14.03125 21.476562 13.953125 C 21.621094 13.875 21.71875 13.789062 21.6875 13.769531 C 21.671875 13.75 21.035156 13.367188 20.28125 12.929688 C 18.234375 11.726562 18.054688 11.621094 18.015625 11.621094 C 18 11.621094 17.851562 11.699219 17.695312 11.796875 Z M 17.695312 11.796875 "/>
<path fill="#6C707E" style=" stroke:none;fill-rule:nonzero;fill-opacity:1;" d="M 8.222656 14.179688 C 8.222656 15.878906 8.234375 16.386719 8.289062 16.425781 C 8.320312 16.453125 8.820312 16.738281 9.394531 17.050781 C 9.96875 17.351562 10.859375 17.84375 11.359375 18.117188 L 12.273438 18.632812 L 12.296875 16.503906 C 12.304688 14.84375 12.285156 14.355469 12.234375 14.316406 C 12.207031 14.277344 11.84375 14.070312 11.4375 13.835938 C 10.320312 13.203125 8.585938 12.195312 8.390625 12.078125 L 8.222656 11.984375 Z M 8.222656 14.179688 "/>
<path fill="#6C707E" style=" stroke:none;fill-rule:nonzero;fill-opacity:1;" d="M 26.0625 13 C 25.273438 13.46875 24.34375 14.015625 24.015625 14.199219 L 23.398438 14.570312 L 23.398438 16.679688 C 23.398438 17.84375 23.40625 18.796875 23.429688 18.796875 C 23.445312 18.796875 23.546875 18.742188 23.652344 18.671875 C 23.757812 18.601562 24.316406 18.273438 24.890625 17.929688 C 25.46875 17.597656 26.296875 17.101562 26.75 16.835938 L 27.546875 16.359375 L 27.558594 14.25 C 27.558594 13.09375 27.558594 12.148438 27.539062 12.148438 C 27.53125 12.148438 26.867188 12.53125 26.0625 13 Z M 26.0625 13 "/>
<path fill="#6C707E" style=" stroke:none;fill-rule:nonzero;fill-opacity:1;" d="M 13.613281 17.296875 L 13.613281 19.460938 L 14.707031 20.070312 C 16.484375 21.054688 17.140625 21.40625 17.234375 21.445312 C 17.324219 21.476562 17.324219 21.359375 17.3125 19.34375 L 17.304688 17.21875 L 16.4375 16.71875 C 15.96875 16.445312 15.292969 16.0625 14.953125 15.867188 C 14.601562 15.664062 14.179688 15.421875 14.015625 15.320312 C 13.835938 15.214844 13.679688 15.125 13.652344 15.125 C 13.632812 15.125 13.613281 16.101562 13.613281 17.296875 Z M 13.613281 17.296875 "/>
<path fill="#6C707E" style=" stroke:none;fill-rule:nonzero;fill-opacity:1;" d="M 21.621094 15.617188 C 21.179688 15.878906 20.605469 16.210938 20.34375 16.359375 C 20.085938 16.515625 19.640625 16.777344 19.34375 16.945312 L 18.820312 17.257812 L 18.808594 19.382812 C 18.796875 20.566406 18.808594 21.523438 18.835938 21.523438 C 18.847656 21.523438 18.90625 21.484375 18.945312 21.445312 C 18.992188 21.40625 19.199219 21.28125 19.394531 21.164062 C 19.601562 21.054688 19.960938 20.839844 20.203125 20.695312 C 20.449219 20.554688 21.046875 20.203125 21.523438 19.929688 C 21.992188 19.648438 22.414062 19.375 22.453125 19.328125 C 22.492188 19.265625 22.519531 18.757812 22.519531 17.1875 C 22.519531 16.054688 22.492188 15.125 22.46875 15.125 C 22.453125 15.125 22.070312 15.351562 21.621094 15.617188 Z M 21.621094 15.617188 "/>
<path fill="#6C707E" style=" stroke:none;fill-rule:nonzero;fill-opacity:1;" d="M 8.222656 20.476562 L 8.222656 22.910156 L 9.226562 23.457031 C 9.785156 23.757812 10.488281 24.148438 10.8125 24.316406 C 11.125 24.484375 11.59375 24.734375 11.835938 24.875 L 12.273438 25.125 L 12.296875 22.792969 C 12.304688 20.957031 12.285156 20.429688 12.234375 20.382812 C 12.148438 20.304688 8.289062 18.066406 8.242188 18.066406 C 8.234375 18.066406 8.222656 19.148438 8.222656 20.476562 Z M 8.222656 20.476562 "/>
<path fill="#6C707E" style=" stroke:none;fill-rule:nonzero;fill-opacity:1;" d="M 27.148438 18.289062 C 26.945312 18.417969 26.492188 18.691406 26.152344 18.898438 C 25.8125 19.109375 25.4375 19.335938 25.34375 19.394531 C 25.242188 19.460938 24.875 19.6875 24.53125 19.890625 C 24.179688 20.109375 23.789062 20.351562 23.652344 20.429688 L 23.398438 20.59375 L 23.398438 24.34375 L 25.046875 24.34375 L 26.125 23.710938 C 26.71875 23.359375 27.273438 23.027344 27.375 22.960938 L 27.546875 22.851562 L 27.546875 20.476562 C 27.539062 19.171875 27.539062 18.09375 27.53125 18.085938 C 27.519531 18.078125 27.34375 18.164062 27.148438 18.289062 Z M 27.148438 18.289062 "/>
<path fill="#6C707E" style=" stroke:none;fill-rule:nonzero;fill-opacity:1;" d="M 13.625 23.574219 L 13.640625 25.996094 L 14.03125 26.210938 C 14.25 26.320312 15.046875 26.765625 15.820312 27.1875 C 16.59375 27.617188 17.234375 27.960938 17.273438 27.960938 C 17.3125 27.960938 17.324219 27.335938 17.3125 25.578125 L 17.304688 23.183594 L 15.5 22.167969 C 14.5 21.609375 13.679688 21.152344 13.652344 21.152344 C 13.632812 21.152344 13.625 22.234375 13.625 23.574219 Z M 13.625 23.574219 "/>
<path fill="#6C707E" style=" stroke:none;fill-rule:nonzero;fill-opacity:1;" d="M 20.59375 22.207031 L 18.796875 23.210938 L 18.796875 24.34375 L 20.644531 24.335938 L 22.480469 24.316406 L 22.507812 22.765625 C 22.519531 21.53125 22.507812 21.203125 22.453125 21.203125 C 22.414062 21.210938 21.582031 21.660156 20.59375 22.207031 Z M 20.59375 22.207031 "/>
<path fill="#6C707E" style=" stroke:none;fill-rule:nonzero;fill-opacity:1;" d="M 20.078125 25.742188 C 19.628906 25.851562 19.25 26.125 19.054688 26.503906 C 18.953125 26.6875 18.953125 26.894531 18.953125 32.851562 C 18.953125 38.820312 18.953125 39.015625 19.054688 39.199219 C 19.1875 39.460938 19.570312 39.8125 19.824219 39.902344 C 20.125 40.007812 35.527344 40.007812 35.828125 39.902344 C 36.085938 39.8125 36.464844 39.460938 36.601562 39.199219 C 36.699219 39.015625 36.699219 38.820312 36.699219 32.851562 C 36.699219 26.894531 36.699219 26.6875 36.601562 26.503906 C 36.464844 26.242188 36.152344 25.945312 35.890625 25.828125 C 35.695312 25.742188 35.273438 25.734375 27.929688 25.734375 C 23.671875 25.722656 20.136719 25.734375 20.078125 25.742188 Z M 35.421875 33.796875 L 35.421875 38.664062 L 20.265625 38.664062 L 20.265625 33.808594 C 20.265625 31.132812 20.265625 28.945312 20.265625 28.925781 C 20.265625 28.914062 23.671875 28.90625 27.84375 28.914062 L 35.421875 28.925781 Z M 35.421875 33.796875 "/>
<path fill="#6C707E" style=" stroke:none;fill-rule:nonzero;fill-opacity:1;" d="M 23.328125 31.035156 L 22.871094 31.484375 L 25.1875 33.796875 L 22.882812 36.101562 L 23.820312 37.039062 L 25.4375 35.421875 L 27.070312 33.796875 L 25.460938 32.1875 C 24.570312 31.296875 23.835938 30.578125 23.820312 30.578125 C 23.808594 30.578125 23.585938 30.78125 23.328125 31.035156 Z M 23.328125 31.035156 "/>
<path fill="#6C707E" style=" stroke:none;fill-rule:nonzero;fill-opacity:1;" d="M 28.066406 36.464844 L 28.066406 37.117188 L 32.929688 37.117188 L 32.929688 35.8125 L 28.066406 35.8125 Z M 28.066406 36.464844 "/>
</g>
</svg>
