<?xml version="1.0" encoding="UTF-8"?>
<svg xmlns="http://www.w3.org/2000/svg" xmlns:xlink="http://www.w3.org/1999/xlink" width="16px" height="16px" viewBox="0 0 16 16" version="1.1" fill="none">
<g id="surface1">
<path fill="#CED0D6" style=" stroke:none;fill-rule:nonzero;fill-opacity:1;" d="M 6.703125 0.269531 C 6.453125 0.414062 6.132812 0.597656 5.988281 0.679688 C 5.847656 0.761719 5.570312 0.921875 5.371094 1.039062 C 5.175781 1.148438 4.898438 1.308594 4.753906 1.390625 C 4.445312 1.574219 3.90625 1.882812 3.457031 2.140625 C 2.902344 2.460938 2.597656 2.636719 2.253906 2.835938 C 2.066406 2.945312 1.777344 3.109375 1.613281 3.207031 L 1.308594 3.382812 L 1.300781 6.769531 L 1.296875 10.15625 L 1.378906 10.207031 C 1.421875 10.234375 1.589844 10.332031 1.75 10.421875 C 1.910156 10.515625 2.203125 10.683594 2.398438 10.796875 C 2.890625 11.082031 3.664062 11.527344 4.398438 11.949219 C 5.148438 12.382812 5.390625 12.519531 5.710938 12.707031 C 5.90625 12.816406 6.214844 12.992188 6.398438 13.101562 C 6.582031 13.207031 6.824219 13.347656 6.933594 13.414062 C 7.046875 13.476562 7.144531 13.527344 7.148438 13.527344 C 7.160156 13.527344 7.164062 13.21875 7.164062 12.839844 L 7.164062 12.148438 L 6.9375 12.019531 C 6.8125 11.949219 6.605469 11.828125 6.472656 11.746094 C 6.339844 11.671875 6.117188 11.542969 5.980469 11.460938 C 5.839844 11.378906 5.664062 11.277344 5.582031 11.230469 C 5.503906 11.183594 5.171875 10.992188 4.847656 10.804688 C 4.523438 10.621094 4.082031 10.363281 3.863281 10.234375 C 3.378906 9.953125 3.164062 9.832031 2.832031 9.636719 L 2.574219 9.484375 L 2.574219 4.144531 L 2.664062 4.089844 C 2.714844 4.0625 2.84375 3.988281 2.953125 3.921875 C 3.0625 3.859375 3.226562 3.761719 3.320312 3.707031 C 3.414062 3.652344 3.605469 3.539062 3.746094 3.457031 C 3.894531 3.371094 4.078125 3.261719 4.15625 3.214844 C 4.238281 3.167969 4.421875 3.058594 4.566406 2.972656 C 4.710938 2.890625 4.867188 2.796875 4.921875 2.765625 C 4.972656 2.734375 5.132812 2.640625 5.277344 2.554688 C 5.421875 2.472656 5.605469 2.363281 5.683594 2.316406 C 5.765625 2.265625 5.945312 2.160156 6.082031 2.078125 C 6.222656 1.996094 6.519531 1.824219 6.75 1.6875 C 7.035156 1.523438 7.175781 1.449219 7.191406 1.464844 C 7.203125 1.476562 7.535156 1.664062 7.925781 1.890625 C 8.320312 2.113281 9.335938 2.695312 10.195312 3.183594 L 11.746094 4.070312 L 11.738281 9.453125 L 11.5 9.597656 L 11.257812 9.738281 L 13.027344 9.738281 L 13.027344 3.382812 L 12.726562 3.210938 C 12.5625 3.117188 12.273438 2.953125 12.082031 2.84375 C 11.691406 2.617188 10.609375 1.992188 10.222656 1.769531 C 8.730469 0.914062 7.210938 0.0351562 7.195312 0.0195312 C 7.183594 0.0078125 7.171875 0 7.164062 0.00390625 C 7.15625 0.00390625 6.949219 0.121094 6.703125 0.269531 Z M 6.703125 0.269531 "/>
<path fill="#CED0D6" style=" stroke:none;fill-rule:nonzero;fill-opacity:1;" d="M 6.898438 2.300781 C 6.808594 2.355469 6.554688 2.507812 6.335938 2.636719 C 6.117188 2.765625 5.832031 2.933594 5.703125 3.011719 C 5.574219 3.089844 5.464844 3.160156 5.464844 3.164062 C 5.464844 3.171875 5.558594 3.230469 5.671875 3.292969 C 5.785156 3.359375 6.144531 3.570312 6.472656 3.761719 C 6.800781 3.953125 7.078125 4.109375 7.089844 4.109375 C 7.101562 4.109375 7.285156 4.011719 7.496094 3.886719 C 7.972656 3.605469 8.335938 3.394531 8.550781 3.269531 L 8.710938 3.179688 L 8.476562 3.039062 C 8.347656 2.960938 8.121094 2.828125 7.980469 2.742188 C 7.589844 2.515625 7.160156 2.257812 7.109375 2.230469 C 7.074219 2.207031 7.046875 2.214844 6.898438 2.300781 Z M 6.898438 2.300781 "/>
<path fill="#CED0D6" style=" stroke:none;fill-rule:nonzero;fill-opacity:1;" d="M 4.699219 3.601562 C 4.511719 3.710938 4.183594 3.902344 3.972656 4.03125 C 3.757812 4.15625 3.589844 4.269531 3.597656 4.273438 C 3.605469 4.285156 3.800781 4.398438 4.03125 4.527344 C 4.261719 4.664062 4.625 4.871094 4.835938 4.992188 L 5.226562 5.21875 L 5.328125 5.160156 C 5.386719 5.128906 5.523438 5.050781 5.632812 4.984375 C 5.742188 4.917969 6.019531 4.757812 6.246094 4.628906 C 6.472656 4.492188 6.65625 4.378906 6.652344 4.367188 C 6.648438 4.351562 6.210938 4.085938 5.359375 3.59375 C 5.238281 3.523438 5.117188 3.449219 5.089844 3.429688 C 5.039062 3.394531 5.027344 3.402344 4.699219 3.601562 Z M 4.699219 3.601562 "/>
<path fill="#CED0D6" style=" stroke:none;fill-rule:nonzero;fill-opacity:1;" d="M 9.027344 3.574219 C 8.917969 3.636719 8.679688 3.777344 8.503906 3.886719 C 8.324219 3.988281 8.050781 4.148438 7.898438 4.242188 C 7.746094 4.332031 7.625 4.40625 7.628906 4.410156 C 7.632812 4.410156 7.820312 4.519531 8.042969 4.648438 C 8.710938 5.039062 8.925781 5.164062 9.007812 5.210938 C 9.046875 5.234375 9.09375 5.257812 9.109375 5.257812 C 9.140625 5.257812 9.246094 5.195312 9.632812 4.96875 C 10.035156 4.730469 10.304688 4.574219 10.492188 4.464844 C 10.601562 4.402344 10.699219 4.34375 10.707031 4.335938 C 10.714844 4.328125 10.621094 4.261719 10.496094 4.1875 C 10.375 4.113281 10.207031 4.015625 10.125 3.96875 C 9.449219 3.566406 9.257812 3.457031 9.242188 3.457031 C 9.234375 3.457031 9.136719 3.507812 9.027344 3.574219 Z M 9.027344 3.574219 "/>
<path fill="#CED0D6" style=" stroke:none;fill-rule:nonzero;fill-opacity:1;" d="M 7.078125 4.71875 C 6.925781 4.808594 6.246094 5.214844 5.976562 5.371094 C 5.859375 5.441406 5.761719 5.507812 5.765625 5.515625 C 5.769531 5.527344 7.148438 6.332031 7.21875 6.359375 C 7.234375 6.367188 7.527344 6.207031 7.867188 6.003906 C 8.210938 5.804688 8.539062 5.613281 8.589844 5.582031 C 8.648438 5.550781 8.6875 5.515625 8.675781 5.507812 C 8.667969 5.5 8.414062 5.347656 8.113281 5.171875 C 7.292969 4.691406 7.222656 4.648438 7.207031 4.648438 C 7.199219 4.648438 7.140625 4.679688 7.078125 4.71875 Z M 7.078125 4.71875 "/>
<path fill="#CED0D6" style=" stroke:none;fill-rule:nonzero;fill-opacity:1;" d="M 3.289062 5.671875 C 3.289062 6.351562 3.292969 6.554688 3.316406 6.570312 C 3.328125 6.582031 3.527344 6.695312 3.757812 6.820312 C 3.988281 6.941406 4.34375 7.136719 4.542969 7.246094 L 4.910156 7.453125 L 4.917969 6.601562 C 4.921875 5.9375 4.914062 5.742188 4.894531 5.726562 C 4.882812 5.710938 4.738281 5.628906 4.574219 5.535156 C 4.128906 5.28125 3.433594 4.878906 3.355469 4.832031 L 3.289062 4.792969 Z M 3.289062 5.671875 "/>
<path fill="#CED0D6" style=" stroke:none;fill-rule:nonzero;fill-opacity:1;" d="M 10.425781 5.199219 C 10.109375 5.386719 9.738281 5.605469 9.605469 5.679688 L 9.359375 5.828125 L 9.359375 6.671875 C 9.359375 7.136719 9.363281 7.519531 9.371094 7.519531 C 9.378906 7.519531 9.417969 7.496094 9.460938 7.46875 C 9.503906 7.441406 9.726562 7.308594 9.957031 7.171875 C 10.1875 7.039062 10.519531 6.839844 10.699219 6.734375 L 11.019531 6.542969 L 11.023438 5.699219 C 11.023438 5.238281 11.023438 4.859375 11.015625 4.859375 C 11.011719 4.859375 10.746094 5.011719 10.425781 5.199219 Z M 10.425781 5.199219 "/>
<path fill="#CED0D6" style=" stroke:none;fill-rule:nonzero;fill-opacity:1;" d="M 5.445312 6.917969 L 5.445312 7.785156 L 5.882812 8.027344 C 6.59375 8.421875 6.855469 8.5625 6.894531 8.578125 C 6.929688 8.589844 6.929688 8.542969 6.925781 7.738281 L 6.921875 6.886719 L 6.574219 6.6875 C 6.386719 6.578125 6.117188 6.425781 5.980469 6.347656 C 5.839844 6.265625 5.671875 6.167969 5.605469 6.128906 C 5.535156 6.085938 5.472656 6.050781 5.460938 6.050781 C 5.453125 6.050781 5.445312 6.441406 5.445312 6.917969 Z M 5.445312 6.917969 "/>
<path fill="#CED0D6" style=" stroke:none;fill-rule:nonzero;fill-opacity:1;" d="M 8.648438 6.246094 C 8.472656 6.351562 8.242188 6.484375 8.136719 6.542969 C 8.035156 6.605469 7.855469 6.710938 7.738281 6.777344 L 7.527344 6.902344 L 7.523438 7.753906 C 7.519531 8.226562 7.523438 8.609375 7.535156 8.609375 C 7.539062 8.609375 7.5625 8.59375 7.578125 8.578125 C 7.597656 8.5625 7.679688 8.511719 7.757812 8.464844 C 7.839844 8.421875 7.984375 8.335938 8.082031 8.277344 C 8.179688 8.222656 8.417969 8.082031 8.609375 7.972656 C 8.796875 7.859375 8.964844 7.75 8.980469 7.730469 C 8.996094 7.707031 9.007812 7.503906 9.007812 6.875 C 9.007812 6.421875 8.996094 6.050781 8.988281 6.050781 C 8.980469 6.050781 8.828125 6.140625 8.648438 6.246094 Z M 8.648438 6.246094 "/>
<path fill="#CED0D6" style=" stroke:none;fill-rule:nonzero;fill-opacity:1;" d="M 3.289062 8.191406 L 3.289062 9.164062 L 3.691406 9.382812 C 3.914062 9.503906 4.195312 9.660156 4.324219 9.726562 C 4.449219 9.792969 4.636719 9.894531 4.734375 9.949219 L 4.910156 10.050781 L 4.917969 9.117188 C 4.921875 8.382812 4.914062 8.171875 4.894531 8.152344 C 4.859375 8.121094 3.316406 7.226562 3.296875 7.226562 C 3.292969 7.226562 3.289062 7.660156 3.289062 8.191406 Z M 3.289062 8.191406 "/>
<path fill="#CED0D6" style=" stroke:none;fill-rule:nonzero;fill-opacity:1;" d="M 10.859375 7.316406 C 10.777344 7.367188 10.597656 7.476562 10.460938 7.558594 C 10.324219 7.644531 10.175781 7.734375 10.136719 7.757812 C 10.097656 7.785156 9.949219 7.875 9.8125 7.957031 C 9.671875 8.042969 9.515625 8.140625 9.460938 8.171875 L 9.359375 8.238281 L 9.359375 9.738281 L 10.019531 9.738281 L 10.449219 9.484375 C 10.6875 9.34375 10.910156 9.210938 10.949219 9.183594 L 11.019531 9.140625 L 11.019531 8.191406 C 11.015625 7.667969 11.015625 7.238281 11.011719 7.234375 C 11.007812 7.230469 10.9375 7.265625 10.859375 7.316406 Z M 10.859375 7.316406 "/>
<path fill="#CED0D6" style=" stroke:none;fill-rule:nonzero;fill-opacity:1;" d="M 5.449219 9.429688 L 5.457031 10.398438 L 5.613281 10.484375 C 5.699219 10.527344 6.019531 10.707031 6.328125 10.875 C 6.636719 11.046875 6.894531 11.183594 6.910156 11.183594 C 6.925781 11.183594 6.929688 10.933594 6.925781 10.230469 L 6.921875 9.273438 L 6.199219 8.867188 C 5.800781 8.644531 5.472656 8.460938 5.460938 8.460938 C 5.453125 8.460938 5.449219 8.894531 5.449219 9.429688 Z M 5.449219 9.429688 "/>
<path fill="#CED0D6" style=" stroke:none;fill-rule:nonzero;fill-opacity:1;" d="M 8.238281 8.882812 L 7.519531 9.285156 L 7.519531 9.738281 L 8.257812 9.734375 L 8.992188 9.726562 L 9.003906 9.105469 C 9.007812 8.613281 9.003906 8.480469 8.980469 8.480469 C 8.964844 8.484375 8.632812 8.664062 8.238281 8.882812 Z M 8.238281 8.882812 "/>
<path fill="#CED0D6" style=" stroke:none;fill-rule:nonzero;fill-opacity:1;" d="M 8.03125 10.296875 C 7.851562 10.339844 7.699219 10.449219 7.621094 10.601562 C 7.582031 10.675781 7.582031 10.757812 7.582031 13.140625 C 7.582031 15.527344 7.582031 15.605469 7.621094 15.679688 C 7.675781 15.785156 7.828125 15.925781 7.929688 15.960938 C 8.050781 16.003906 14.210938 16.003906 14.332031 15.960938 C 14.433594 15.925781 14.585938 15.785156 14.640625 15.679688 C 14.679688 15.605469 14.679688 15.527344 14.679688 13.140625 C 14.679688 10.757812 14.679688 10.675781 14.640625 10.601562 C 14.585938 10.496094 14.460938 10.378906 14.355469 10.332031 C 14.277344 10.296875 14.109375 10.292969 11.171875 10.292969 C 9.46875 10.289062 8.054688 10.292969 8.03125 10.296875 Z M 14.167969 13.519531 L 14.167969 15.464844 L 8.105469 15.464844 L 8.105469 13.523438 C 8.105469 12.453125 8.105469 11.578125 8.105469 11.570312 C 8.105469 11.566406 9.46875 11.5625 11.136719 11.566406 L 14.167969 11.570312 Z M 14.167969 13.519531 "/>
<path fill="#CED0D6" style=" stroke:none;fill-rule:nonzero;fill-opacity:1;" d="M 9.332031 12.414062 L 9.148438 12.59375 L 10.074219 13.519531 L 9.152344 14.441406 L 9.527344 14.816406 L 10.175781 14.167969 L 10.828125 13.519531 L 10.183594 12.875 C 9.828125 12.519531 9.535156 12.230469 9.527344 12.230469 C 9.523438 12.230469 9.433594 12.3125 9.332031 12.414062 Z M 9.332031 12.414062 "/>
<path fill="#CED0D6" style=" stroke:none;fill-rule:nonzero;fill-opacity:1;" d="M 11.226562 14.585938 L 11.226562 14.847656 L 13.171875 14.847656 L 13.171875 14.324219 L 11.226562 14.324219 Z M 11.226562 14.585938 "/>
</g>
</svg>
